<?xml version="1.0" encoding="UTF-8"?>
<svg id="Layer_2" data-name="Layer 2" xmlns="http://www.w3.org/2000/svg" viewBox="0 0 15 20">
  <defs>
    <style>
      .cls-1 {
        fill: #cab3ff;
      }
    </style>
  </defs>
  <g id="Layer_1-2" data-name="Layer 1">
    <path class="cls-1" d="m12.5,20H2.5c-.66,0-1.3-.26-1.77-.73-.47-.47-.73-1.1-.73-1.77V2.5c0-.66.26-1.3.73-1.77C1.2.26,1.84,0,2.5,0h10c.66,0,1.3.26,1.77.73.47.47.73,1.1.73,1.77v15c0,.66-.26,1.3-.73,1.77-.47.47-1.1.73-1.77.73ZM2.5,1.25c-.33,0-.65.13-.88.37-.23.23-.37.55-.37.88v15c0,.33.13.65.37.88.23.23.55.37.88.37h10c.33,0,.65-.13.88-.37.23-.23.37-.55.37-.88V2.5c0-.33-.13-.65-.37-.88-.23-.23-.55-.37-.88-.37H2.5Z"/>
    <path class="cls-1" d="m12.5,0c.66,0,1.3.26,1.77.73.47.47.73,1.1.73,1.77v15c0,.66-.26,1.3-.73,1.77-.47.47-1.1.73-1.77.73H2.5c-.66,0-1.3-.26-1.77-.73-.47-.47-.73-1.1-.73-1.77V2.5c0-.66.26-1.3.73-1.77C1.2.26,1.84,0,2.5,0h10ZM2.5,18.75h10c.33,0,.65-.13.88-.37.23-.23.37-.55.37-.88V2.5c0-.33-.13-.65-.37-.88-.23-.23-.55-.37-.88-.37H2.5c-.33,0-.65.13-.88.37-.23.23-.37.55-.37.88v15c0,.33.13.65.37.88.23.23.55.37.88.37Zm0-.62c-.17,0-.32-.07-.44-.18-.12-.12-.18-.28-.18-.44V2.5c0-.17.07-.32.18-.44.12-.12.28-.18.44-.18h10c.17,0,.32.07.44.18.12.12.18.28.18.44v15c0,.17-.07.32-.18.44-.12.12-.28.18-.44.18H2.5Z"/>
  </g>
</svg>