<?xml version="1.0" encoding="UTF-8"?>
<svg id="Layer_2" data-name="Layer 2" xmlns="http://www.w3.org/2000/svg" viewBox="0 0 13.75 17.5">
  <defs>
    <style>
      .cls-1 {
        fill: #fff;
      }
    </style>
  </defs>
  <g id="Layer_1-2" data-name="Layer 1">
    <path class="cls-1" d="m13.59,7.5h-5.47c-.5,0-.97-.2-1.33-.55s-.55-.83-.55-1.33V.16s-.02-.08-.05-.11c-.03-.03-.07-.05-.11-.05h-3.59c-.66,0-1.3.26-1.77.73-.47.47-.73,1.1-.73,1.77v12.5c0,.66.26,1.3.73,1.77.47.47,1.1.73,1.77.73h8.75c.66,0,1.3-.26,1.77-.73.47-.47.73-1.1.73-1.77v-7.34s-.02-.08-.05-.11c-.03-.03-.07-.05-.11-.05Zm-3.59,6.25H3.75c-.17,0-.32-.07-.44-.18-.12-.12-.18-.28-.18-.44s.07-.32.18-.44c.12-.12.28-.18.44-.18h6.25c.17,0,.32.07.44.18.12.12.18.28.18.44s-.07.32-.18.44c-.12.12-.28.18-.44.18Zm0-3.12H3.75c-.17,0-.32-.07-.44-.18-.12-.12-.18-.28-.18-.44s.07-.32.18-.44c.12-.12.28-.18.44-.18h6.25c.17,0,.32.07.44.18.12.12.18.28.18.44s-.07.32-.18.44c-.12.12-.28.18-.44.18Z"/>
    <path class="cls-1" d="m13.25,6.12L7.63.5s-.02-.02-.04-.02-.03,0-.05,0c-.01,0-.03.02-.04.03,0,.01-.01.03-.01.04v5.07c0,.17.07.32.18.44.12.12.28.18.44.18h5.07s.03,0,.04-.01c.01,0,.02-.02.03-.03,0-.01,0-.03,0-.05,0-.02-.01-.03-.02-.04Z"/>
  </g>
</svg>