<?xml version="1.0" encoding="UTF-8"?>
<svg id="Layer_2" data-name="Layer 2" xmlns="http://www.w3.org/2000/svg" viewBox="0 0 16.25 16.1">
  <defs>
    <style>
      .cls-1 {
        fill: #fff;
      }
    </style>
  </defs>
  <g id="Layer_1-2" data-name="Layer 1">
    <path class="cls-1" d="m16.25,7.81c0-.1-.04-.19-.11-.26-.07-.07-.16-.12-.25-.13l-1-.16s-.09-.03-.12-.06c-.03-.03-.05-.08-.06-.12-.02-.12-.04-.25-.07-.37,0-.04,0-.09.01-.13.02-.04.05-.08.09-.1l.89-.49c.09-.05.16-.12.19-.21.04-.09.04-.19,0-.29l-.15-.43c-.03-.09-.1-.17-.19-.22-.09-.05-.19-.06-.29-.04l-1,.2s-.09,0-.13-.02c-.04-.02-.07-.05-.1-.09-.06-.11-.12-.22-.19-.33-.02-.04-.04-.08-.03-.13,0-.05.02-.09.05-.12l.66-.77c.07-.07.11-.17.11-.27,0-.1-.03-.2-.09-.27l-.29-.35c-.06-.08-.15-.13-.25-.14-.1-.01-.2,0-.28.06l-.87.52s-.08.03-.13.03c-.05,0-.09-.02-.12-.05-.1-.08-.2-.17-.29-.24-.04-.03-.06-.07-.07-.11-.01-.04,0-.09,0-.13l.36-.95c.04-.09.04-.19.01-.29-.03-.09-.1-.17-.18-.22l-.39-.23c-.09-.05-.19-.07-.28-.05-.1.02-.18.08-.24.16l-.64.8s-.06.06-.1.07c-.04.01-.08.01-.12,0-.02,0-.23-.09-.38-.14-.04-.01-.08-.04-.11-.08-.03-.04-.04-.08-.04-.13l.02-1.02c0-.1-.03-.2-.09-.28-.06-.08-.15-.13-.25-.15l-.45-.08c-.1-.02-.2,0-.28.05-.08.05-.15.13-.18.23l-.33.97s-.04.08-.08.11c-.04.03-.08.04-.13.04h-.38s-.09-.01-.13-.04c-.04-.03-.07-.06-.08-.11l-.33-.96c-.03-.1-.09-.18-.18-.23s-.19-.07-.28-.05l-.45.08c-.1.02-.18.07-.25.15-.06.08-.09.17-.09.27l.02,1.02s-.01.09-.04.13c-.03.04-.07.06-.11.08-.09.03-.28.11-.37.14-.08.03-.16,0-.23-.08l-.64-.78c-.06-.08-.14-.14-.24-.16-.1-.02-.2,0-.28.04l-.39.23c-.09.05-.15.13-.18.22s-.03.2.01.29l.36.95s.02.09,0,.13c-.01.04-.04.08-.07.11-.09.08-.19.16-.29.24-.03.03-.08.05-.12.05-.04,0-.09,0-.13-.03l-.86-.53c-.08-.05-.18-.08-.28-.06-.1.01-.19.06-.25.14l-.29.35c-.06.08-.1.17-.1.27,0,.1.04.19.11.27l.67.77s.05.08.05.12c0,.05,0,.09-.03.13-.07.11-.13.22-.19.33-.02.04-.06.07-.1.09-.04.02-.09.03-.13.02l-1-.19c-.1-.02-.2-.01-.29.04-.09.05-.15.12-.19.22l-.16.43c-.03.09-.03.2,0,.29.04.09.1.17.19.21l.89.49s.07.06.09.1c.02.04.02.09.01.13v.05c-.03.11-.05.21-.07.32,0,.04-.03.09-.06.12-.03.03-.07.05-.12.06l-1,.16c-.1.01-.19.06-.25.13C.04,7.63,0,7.72,0,7.82v.45c0,.1.04.2.1.27.07.07.16.12.26.13l1,.16s.09.03.12.06c.03.03.05.08.06.12.02.12.04.25.07.37,0,.04,0,.09-.01.13-.02.04-.05.08-.09.1l-.89.49c-.09.05-.16.12-.19.21s-.04.19,0,.29l.16.43c.03.09.1.17.19.22.09.05.19.06.29.04l1-.19s.09,0,.13.02c.04.02.07.05.1.09.06.11.12.22.19.33.02.04.04.08.03.13,0,.05-.02.09-.05.12l-.66.77c-.07.07-.11.17-.11.27,0,.1.03.2.09.27l.29.35c.06.08.15.13.25.14.1.01.2,0,.28-.06l.87-.52s.08-.03.13-.03c.04,0,.09.02.12.05.1.08.2.17.29.24.04.03.06.07.07.11.01.04.01.09,0,.13l-.36.95c-.04.09-.04.19-.01.29.03.09.1.17.18.22l.39.23c.09.05.19.07.28.05.1-.02.18-.08.24-.16l.65-.8c.05-.07.14-.1.2-.07.14.06.23.09.39.14.04.01.08.04.11.08.03.04.04.08.04.13l-.02,1.02c0,.1.03.2.09.28.06.08.15.13.25.15l.45.08c.1.02.2,0,.28-.05.08-.05.15-.13.18-.23l.33-.97s.04-.08.08-.11c.04-.03.08-.04.13-.04h.38s.09.01.13.04c.04.03.07.06.08.11l.33.96c.03.08.08.16.15.21.07.05.16.08.24.08.02,0,.05,0,.07,0l.45-.08c.1-.02.18-.07.25-.15.06-.08.09-.17.09-.27l-.02-1.02s.01-.09.04-.13c.03-.04.06-.06.11-.08.15-.05.26-.09.35-.13h.02c.12-.05.18,0,.21.04l.65.81c.06.08.14.14.24.16.1.02.2,0,.28-.05l.39-.23c.09-.05.15-.13.18-.22.03-.09.03-.2-.01-.29l-.36-.95s-.02-.09,0-.13c.01-.04.04-.08.07-.11.09-.08.19-.16.29-.24.03-.03.08-.05.12-.05.04,0,.09,0,.13.03l.87.52c.08.05.18.08.28.06.1-.01.19-.06.25-.14l.29-.35c.06-.08.1-.17.1-.27s-.04-.19-.11-.27l-.67-.77s-.05-.08-.05-.12c0-.05,0-.09.03-.13.07-.11.13-.22.19-.33.02-.04.06-.07.1-.09.04-.02.09-.03.13-.02l1,.19c.1.02.2.01.29-.04.09-.05.15-.12.19-.22l.15-.43c.03-.09.03-.2,0-.29-.04-.09-.1-.17-.19-.21l-.89-.49s-.07-.06-.09-.1c-.02-.04-.02-.09-.01-.13v-.05c.03-.11.05-.21.07-.32,0-.04.03-.09.06-.12.03-.03.07-.05.12-.06l1-.16c.1-.01.19-.06.26-.13.07-.07.1-.17.1-.27v-.46Zm-11.03,3.67c-.05.08-.12.16-.2.21-.08.05-.18.09-.27.1-.1.01-.2,0-.29-.04-.09-.04-.17-.09-.24-.16-.88-.97-1.37-2.24-1.36-3.55,0-1.31.49-2.58,1.38-3.54.07-.07.15-.13.24-.16.09-.03.19-.05.29-.04.1.01.19.04.27.1.08.05.15.13.2.21l1.78,3.14c.05.09.08.2.08.31s-.03.21-.08.31l-1.8,3.13Zm2.91,1.84c-.37,0-.74-.04-1.11-.12-.09-.02-.18-.06-.26-.13-.07-.06-.13-.14-.17-.23-.04-.09-.06-.19-.05-.28,0-.1.03-.19.08-.28l1.8-3.12c.05-.09.13-.17.23-.23.09-.05.2-.08.31-.08h3.6c.1,0,.19.02.28.07.09.04.16.11.22.19.06.08.1.17.11.26.02.1,0,.19-.02.29-.68,2.12-2.67,3.66-5.02,3.66Zm.29-6.4l-1.78-3.13c-.05-.08-.08-.18-.08-.28,0-.1.01-.19.05-.28.04-.09.1-.17.17-.23.07-.06.16-.1.26-.13.36-.07.72-.11,1.08-.11,2.34,0,4.33,1.54,5.01,3.66.03.09.04.19.02.29-.02.1-.05.19-.11.26-.06.08-.13.14-.22.19-.09.04-.18.07-.28.07h-3.59c-.11,0-.22-.03-.31-.08-.09-.05-.17-.13-.23-.23Z"/>
  </g>
</svg>