<?xml version="1.0" encoding="UTF-8"?>
<svg id="Layer_2" data-name="Layer 2" xmlns="http://www.w3.org/2000/svg" viewBox="0 0 18.75 13.75">
  <defs>
    <style>
      .cls-1 {
        fill: #fff;
      }
    </style>
  </defs>
  <g id="Layer_1-2" data-name="Layer 1">
    <path class="cls-1" d="m12.5,6.87c-.8,0-1.58-.36-2.19-1.01-.59-.63-.95-1.48-1.02-2.38-.07-.96.23-1.85.83-2.49s1.44-.99,2.38-.99,1.77.35,2.37,1c.6.65.9,1.53.83,2.49-.07.9-.43,1.75-1.02,2.38-.61.65-1.38,1.01-2.19,1.01Z"/>
    <path class="cls-1" d="m17.65,13.75H7.35c-.17,0-.33-.04-.48-.11-.15-.07-.28-.18-.38-.31-.11-.14-.18-.31-.22-.48-.04-.17-.03-.35.01-.53.33-1.32,1.14-2.42,2.36-3.17,1.08-.67,2.45-1.03,3.86-1.03s2.77.35,3.86,1.02c1.22.75,2.03,1.85,2.36,3.19.04.17.05.35.01.53-.04.17-.11.34-.22.48-.1.13-.23.23-.38.31-.15.07-.31.11-.48.11Z"/>
    <path class="cls-1" d="m5.12,7.03c-1.37,0-2.58-1.28-2.7-2.85-.06-.8.2-1.55.7-2.09.5-.54,1.21-.84,1.99-.84s1.48.3,1.99.84c.51.55.76,1.29.7,2.09-.11,1.57-1.32,2.85-2.69,2.85Z"/>
    <path class="cls-1" d="m7.68,8.26c-.69-.34-1.58-.5-2.56-.5-1.15,0-2.27.3-3.15.84-1,.62-1.67,1.52-1.94,2.61-.04.16-.04.32-.01.48.03.16.1.31.2.43.09.12.21.22.35.28.14.07.29.1.44.1h4.34c.07,0,.14-.03.2-.07.06-.05.09-.11.11-.18,0-.02,0-.05.02-.07.33-1.33,1.11-2.45,2.25-3.27.04-.03.08-.07.1-.12.02-.05.03-.1.03-.15,0-.05-.02-.1-.04-.15-.03-.04-.06-.08-.11-.11-.06-.04-.13-.07-.21-.11Z"/>
  </g>
</svg>