<?xml version="1.0" encoding="UTF-8"?>
<svg id="Layer_2" data-name="Layer 2" xmlns="http://www.w3.org/2000/svg" viewBox="0 0 231.63 231.63">
  <defs>
    <style>
      .cls-1 {
        fill: #585b77;
        fill-rule: evenodd;
      }
    </style>
  </defs>
  <g id="Graphic_Elements" data-name="Graphic Elements">
    <path class="cls-1" d="m172.57,109.66c-2.3-2.54-6.18-3.91-10.93-3.91-3.09,0-5.63.51-7.69,1.58-1.99,1.05-3.64,2.35-4.89,3.88-1.24,1.54-2.09,3.19-2.57,4.94-.5,1.72-.81,3.28-.89,4.63h31.42c-.46-4.92-2.14-8.56-4.44-11.12Zm0,0c-2.3-2.54-6.18-3.91-10.93-3.91-3.09,0-5.63.51-7.69,1.58-1.99,1.05-3.64,2.35-4.89,3.88-1.24,1.54-2.09,3.19-2.57,4.94-.5,1.72-.81,3.28-.89,4.63h31.42c-.46-4.92-2.14-8.56-4.44-11.12ZM115.82,0C51.85,0,0,51.85,0,115.82s51.85,115.82,115.82,115.82,115.82-51.85,115.82-115.82S179.78,0,115.82,0Zm25.84,72.87h39.36v9.59h-39.36v-9.59Zm-24.57,75.12c-1.9,3.62-4.5,6.54-7.69,8.8-3.21,2.26-6.9,3.95-11.05,5.03-4.08,1.1-8.34,1.63-12.68,1.63h-47.06v-97.08h45.78c4.65,0,8.84.39,12.66,1.22,3.81.81,7.07,2.16,9.81,4.02,2.71,1.85,4.82,4.31,6.33,7.4,1.49,3.05,2.23,6.88,2.23,11.39,0,4.89-1.12,8.97-3.33,12.23-2.23,3.26-5.52,5.94-9.92,8.01,5.99,1.72,10.41,4.75,13.35,9.04,2.93,4.34,4.39,9.52,4.39,15.6,0,4.91-.94,9.16-2.83,12.71Zm79.25-15.03h-50.74c0,5.56,1.89,10.81,4.79,13.64,2.88,2.81,7.07,4.24,12.49,4.24,3.89,0,7.26-.98,10.07-2.95,2.8-1.96,4.51-4.05,5.16-6.23h17c-2.73,8.48-6.88,14.52-12.54,18.15-5.58,3.64-12.41,5.47-20.35,5.47-5.54,0-10.52-.91-15-2.68-4.48-1.78-8.2-4.29-11.36-7.55-3.05-3.28-5.44-7.17-7.14-11.72-1.68-4.53-2.52-9.54-2.52-14.98s.88-10.17,2.59-14.72c1.77-4.55,4.19-8.48,7.38-11.77,3.19-3.31,6.97-5.94,11.38-7.84,4.43-1.9,9.28-2.87,14.67-2.87,5.95,0,11.15,1.15,15.63,3.48,4.44,2.3,8.08,5.4,10.96,9.32,2.87,3.89,4.89,8.34,6.18,13.35,1.25,4.98,1.7,10.19,1.34,15.65Zm-34.69-27.21c-3.09,0-5.63.51-7.69,1.58-1.99,1.05-3.64,2.35-4.89,3.88-1.24,1.54-2.09,3.19-2.57,4.94-.5,1.72-.81,3.28-.89,4.63h31.42c-.46-4.92-2.14-8.56-4.44-11.12-2.3-2.54-6.18-3.91-10.93-3.91Zm-67.28,17.62c-2.8-2.13-6.54-3.19-11.14-3.19h-23.25v26.75h22.82c2.11,0,4.1-.19,5.99-.62,1.92-.41,3.6-1.08,5.04-2.06,1.42-.94,2.61-2.23,3.47-3.88.88-1.63,1.29-3.72,1.29-6.28,0-5.01-1.41-8.56-4.22-10.72Zm-3.35-20.5c2.47-1.78,3.65-4.75,3.65-8.82,0-2.26-.39-4.14-1.18-5.58-.84-1.46-1.92-2.59-3.29-3.38-1.37-.82-2.92-1.41-4.72-1.72-1.75-.34-3.6-.46-5.49-.46h-20.01v22.68h21.64c3.79,0,6.91-.89,9.4-2.73Z"/>
  </g>
</svg>