<?xml version="1.0" encoding="UTF-8"?>
<svg id="Layer_2" data-name="Layer 2" xmlns="http://www.w3.org/2000/svg" viewBox="0 0 231.63 227.77">
  <defs>
    <style>
      .cls-1 {
        fill: #585b77;
        fill-rule: evenodd;
      }
    </style>
  </defs>
  <g id="Graphic_Elements" data-name="Graphic Elements">
    <path class="cls-1" d="m115.91,0C51.82,0,0,52.2,0,116.77c0,51.62,33.2,95.31,79.26,110.78,5.76,1.16,7.87-2.51,7.87-5.6,0-2.71-.19-11.99-.19-21.65-32.24,6.96-38.96-13.92-38.96-13.92-5.18-13.53-12.86-17.01-12.86-17.01-10.55-7.15.77-7.15.77-7.15,11.71.77,17.85,11.99,17.85,11.99,10.36,17.79,27.06,12.76,33.77,9.67.96-7.54,4.03-12.76,7.29-15.66-25.72-2.71-52.77-12.76-52.77-57.61,0-12.76,4.6-23.2,11.9-31.32-1.15-2.9-5.18-14.89,1.15-30.93,0,0,9.79-3.09,31.85,11.99,9.45-2.56,19.19-3.86,28.98-3.87,9.79,0,19.76,1.35,28.98,3.87,22.07-15.08,31.86-11.99,31.86-11.99,6.33,16.05,2.3,28.03,1.15,30.93,7.49,8.12,11.9,18.56,11.9,31.32,0,44.85-27.06,54.71-52.97,57.61,4.22,3.67,7.87,10.63,7.87,21.65,0,15.66-.19,28.23-.19,32.09,0,3.09,2.11,6.77,7.87,5.61,46.06-15.47,79.26-59.16,79.26-110.78C231.82,52.2,179.82,0,115.91,0Z"/>
  </g>
</svg>