<?xml version="1.0" encoding="UTF-8"?>
<svg id="Layer_2" data-name="Layer 2" xmlns="http://www.w3.org/2000/svg" viewBox="0 0 231.63 231.63">
  <defs>
    <style>
      .cls-1 {
        fill: #585b77;
      }
    </style>
  </defs>
  <g id="Graphic_Elements" data-name="Graphic Elements">
    <path class="cls-1" d="m115.82,0C51.85,0,0,51.85,0,115.82s51.85,115.82,115.82,115.82,115.82-51.85,115.82-115.82S179.78,0,115.82,0Zm-36.2,133.52c0,14.5-.02,29,.03,43.5.02,1.61-.39,2.11-2.06,2.09-8.24-.1-16.47-.07-24.71-.02-1.32,0-1.73-.33-1.72-1.68.03-29.37.03-58.73,0-88.09,0-1.22.29-1.65,1.58-1.63,8.36.05,16.73.07,25.09-.02,1.6-.02,1.82.6,1.82,1.99-.05,14.62-.03,29.24-.03,43.86Zm-14.19-58.41c-8.96,0-16.42-7.43-16.44-16.39-.03-9.06,7.41-16.52,16.47-16.51,9.01,0,16.42,7.4,16.44,16.37,0,9.09-7.38,16.52-16.47,16.52Zm120.79,102.11c.02,1.49-.41,1.89-1.89,1.87-8.24-.07-16.49-.07-24.72,0-1.44.02-1.77-.43-1.75-1.8.03-15.22.05-30.46,0-45.67-.02-3.81-.26-7.62-1.32-11.34-1.97-6.83-6.86-10.31-14.02-9.93-9.78.53-14.86,5.37-16.11,15.3-.29,2.37-.43,4.75-.43,7.14,0,14.81-.02,29.61.03,44.42,0,1.48-.36,1.9-1.87,1.89-8.3-.07-16.61-.05-24.91,0-1.32,0-1.72-.34-1.72-1.7.05-29.31.05-58.63,0-87.93,0-1.46.48-1.78,1.85-1.78,7.88.07,15.77.07,23.64,0,1.46-.02,1.84.46,1.8,1.84-.09,3.5-.03,7-.03,10.52,1.9-2.14,3.48-4.32,5.42-6.16,6.01-5.66,13.13-8.51,21.41-8.44,4.56.03,9.06.36,13.45,1.63,10.05,2.92,15.91,9.83,18.69,19.65,2.09,7.38,2.47,14.93,2.49,22.51.03,16.01-.05,32-.02,48.01Z"/>
  </g>
</svg>