<?xml version="1.0" encoding="UTF-8"?>
<svg id="Layer_2" data-name="Layer 2" xmlns="http://www.w3.org/2000/svg" viewBox="0 0 231.63 231.63">
  <defs>
    <style>
      .cls-1 {
        fill: #585b77;
      }
    </style>
  </defs>
  <g id="Graphic_Elements" data-name="Graphic Elements">
    <path class="cls-1" d="m115.82,0C51.85,0,0,51.85,0,115.82s51.85,115.82,115.82,115.82,115.82-51.85,115.82-115.82S179.78,0,115.82,0Zm3.74,186.97h-.02c-12.3,0-24.38-3.09-35.12-8.94l-38.95,10.21,10.43-38.06c-6.43-11.14-9.81-23.78-9.81-36.72.02-40.49,32.98-73.45,73.47-73.45,19.66.02,38.11,7.67,51.97,21.55,13.88,13.88,21.52,32.33,21.5,51.95-.02,40.49-32.98,73.45-73.47,73.45Zm.03-134.55c-33.68,0-61.08,27.38-61.1,61.05,0,11.53,3.23,22.77,9.33,32.5l1.46,2.3-6.16,22.53,23.11-6.06,2.23,1.32c9.37,5.56,20.11,8.51,31.07,8.51h.02c33.66,0,61.07-27.38,61.07-61.05.02-16.32-6.33-31.66-17.86-43.19-11.53-11.55-26.87-17.9-43.17-17.91Zm35.91,87.3c-1.53,4.29-8.87,8.2-12.39,8.72-3.17.48-7.17.67-11.56-.72-2.68-.84-6.09-1.97-10.47-3.86-18.41-7.96-30.44-26.49-31.36-27.71-.91-1.24-7.5-9.95-7.5-18.99s4.75-13.47,6.43-15.3c1.68-1.84,3.67-2.3,4.89-2.3s2.45.02,3.52.07c1.13.05,2.64-.43,4.13,3.14,1.53,3.69,5.2,12.71,5.66,13.64.45.91.75,1.99.15,3.21-.62,1.22-.93,1.99-1.84,3.05-.93,1.08-1.94,2.4-2.76,3.23-.91.91-1.87,1.9-.81,3.74,1.08,1.84,4.75,7.84,10.21,12.71,7.02,6.25,12.94,8.18,14.77,9.11,1.84.91,2.9.77,3.98-.46,1.06-1.22,4.58-5.35,5.8-7.19,1.24-1.84,2.45-1.53,4.14-.93,1.68.62,10.71,5.06,12.54,5.97,1.84.93,3.07,1.39,3.52,2.14.46.77.46,4.44-1.06,8.73Z"/>
  </g>
</svg>